{"title":"Thor The Dark World 2013 BRRip 720p x264 AAC - PRiSTiNE [P2PDL]","uid":9576804,"size":771824378,"categoryP":"video","categoryS":"hd___movies","magnet":"?xt=urn:btih:016850dcd09e4400da6bf7a375f4bf2ac827592c&amp;dn=Thor+The+Dark+World+2013+BRRip+720p+x264+AAC+-+PRiSTiNE+%5BP2PDL%5D&amp;tr=udp%3A%2F%2Ftracker.openbittorrent.com%3A80&amp;tr=udp%3A%2F%2Fopen.demonii.com%3A1337&amp;tr=udp%3A%2F%2Ftracker.coppersurfer.tk%3A6969&amp;tr=udp%3A%2F%2Fexodus.desync.com%3A6969","seeders":2,"leechers":0,"uploader":"ValidusVyto","files":-1,"time":1391711642,"description":"Thor.The.Dark.World.2013.BRRip.720p.x264.AAC-PRiSTiNE\n\n\nGenre: Action | Adventure | Fantasy &lt;a href=&quot;\nhttp://www.imdb.com/title/tt1981115/&quot; rel=&quot;nofollow&quot; target=&quot;_NEW&quot;&gt;\nhttp://www.imdb.com/title/tt1981115/&lt;/a&gt;\n\n\nFormat                                   : MPEG-4\nFile size                                : 726 MiB\nDuration                                 : 1h 52mn\nOverall bit rate mode                    : Variable\nOverall bit rate                         : 905 Kbps\nVideo\nFormat                                   : AVC\nBit rate                                 : 820 Kbps\nWidth                                    : 1 280 pixels\nHeight                                   : 528 pixels\nDisplay aspect ratio                     : 2.40:1\nFrame rate mode                          : Variable\nFrame rate                               : 23.976 fps\nBit depth                                : 8 bits\nStream size                              : 657 MiB (91%)\nWriting library                          : x264 core 140 r2377 1ca7bb9\n\nAudio\nFormat                                   : AAC\nBit rate                                 : 80.0 Kbps\nChannel(s)                               : 2 channels\nChannel positions                        : Front: L R\nSampling rate                            : 48.0 KHz\nStream size                              : 64.2 MiB (9%)\nLanguage                                 : English\n\nSubtitle                                 : Yes (English)\n &lt;a href=&quot;\nhttp://someimage.com/tefyVCL&quot; rel=&quot;nofollow&quot; target=&quot;_NEW&quot;&gt;\nhttp://someimage.com/tefyVCL&lt;/a&gt; &lt;a href=&quot;\nhttp://someimage.com/fQfZREv&quot; rel=&quot;nofollow&quot; target=&quot;_NEW&quot;&gt;\nhttp://someimage.com/fQfZREv&lt;/a&gt; &lt;a href=&quot;\nhttp://someimage.com/quiYuvr&quot; rel=&quot;nofollow&quot; target=&quot;_NEW&quot;&gt;\nhttp://someimage.com/quiYuvr&lt;/a&gt; &lt;a href=&quot;\nhttp://someimage.com/jUjcoC0&quot; rel=&quot;nofollow&quot; target=&quot;_NEW&quot;&gt;\nhttp://someimage.com/jUjcoC0&lt;/a&gt; &lt;a href=&quot;\nhttp://someimage.com/27pmcuL&quot; rel=&quot;nofollow&quot; target=&quot;_NEW&quot;&gt;\nhttp://someimage.com/27pmcuL&lt;/a&gt; &lt;a href=&quot;\nhttp://someimage.com/YWm3DsT&quot; rel=&quot;nofollow&quot; target=&quot;_NEW&quot;&gt;\nhttp://someimage.com/YWm3DsT&lt;/a&gt; &lt;a href=&quot;\nhttp://someimage.com/lXeBimp&quot; rel=&quot;nofollow&quot; target=&quot;_NEW&quot;&gt;\nhttp://someimage.com/lXeBimp&lt;/a&gt; &lt;a href=&quot;\nhttp://someimage.com/CIGMsQO&quot; rel=&quot;nofollow&quot; target=&quot;_NEW&quot;&gt;\nhttp://someimage.com/CIGMsQO&lt;/a&gt;\n\n\n----------------------------------------------------------------------------------------------------\n\n\nEncoded using revolutionary 10bit encoding, which enables us to provide you more crispier \nand sharper images at small sizes, just make sure you follow our instructions without a fault.\nRecommend to you to use latest version of VLC player. Install K-Lite Codec Pack or shark007 codecs\nin case of any kind of problem in playback (For non-VLC Media Player users). Alternatively, install\nCore AVC codecs, the fastest decoder that there is coupled with Community Center Codec Pack and play\non Windows Media Player Classic. Check sample to be sure.\nEnjoy!\n\nEncoder Notes:Looking For Early Access To Anything You Can Provide DVDScr, R5, DVDR, BluRay, Direct\nAudio, Music Releases and Seedboxes. We require dedicated servers, so as to do more \nand fast releases of movies.","torrent":{"xt":"urn:btih:016850dcd09e4400da6bf7a375f4bf2ac827592c","amp;dn":"Thor+The+Dark+World+2013+BRRip+720p+x264+AAC+-+PRiSTiNE+%5BP2PDL%5D","amp;tr":["udp%3A%2F%2Ftracker.openbittorrent.com%3A80","udp%3A%2F%2Fopen.demonii.com%3A1337","udp%3A%2F%2Ftracker.coppersurfer.tk%3A6969","udp%3A%2F%2Fexodus.desync.com%3A6969"],"infoHash":"016850dcd09e4400da6bf7a375f4bf2ac827592c","infoHashBuffer":{"type":"Buffer","data":[1,104,80,220,208,158,68,0,218,107,247,163,117,244,191,42,200,39,89,44]},"announce":[],"urlList":[]}}